<?xml version="1.0" encoding="UTF-8"?>
<svg xmlns="http://www.w3.org/2000/svg" xmlns:xlink="http://www.w3.org/1999/xlink" width="474.8719" height="113.236" viewBox="0 0 474.8719 113.236">
<defs>
<clipPath id="clip-0">
<path clip-rule="nonzero" d="M 0 67 L 34 67 L 34 113.234375 L 0 113.234375 Z M 0 67 "/>
</clipPath>
<clipPath id="clip-1">
<path clip-rule="nonzero" d="M 38 67 L 71 67 L 71 113.234375 L 38 113.234375 Z M 38 67 "/>
</clipPath>
<clipPath id="clip-2">
<path clip-rule="nonzero" d="M 436 67 L 474.871094 67 L 474.871094 113 L 436 113 Z M 436 67 "/>
</clipPath>
</defs>
<g clip-path="url(#clip-0)">
<path fill-rule="evenodd" fill="rgb(0%, 0%, 0%)" fill-opacity="1" d="M 4.453125 101.761719 L 7.273438 103.703125 L 10.347656 105.097656 L 13.679688 105.945312 L 17.261719 106.25 L 21.113281 105.8125 L 23.882812 104.617188 L 25.570312 102.671875 L 26.175781 99.96875 L 25.546875 97.054688 L 23.589844 95.03125 L 20.296875 93.902344 L 18.421875 93.648438 L 16.429688 93.367188 L 14.324219 93.070312 L 10.757812 92.164062 L 7.804688 90.730469 L 5.476562 88.769531 L 3.742188 86.316406 L 2.699219 83.527344 L 2.351562 80.414062 L 2.785156 76.730469 L 4.097656 73.554688 L 6.28125 70.886719 L 8.378906 69.3125 L 10.882812 68.179688 L 13.78125 67.484375 L 17.078125 67.234375 L 21.148438 67.597656 L 24.941406 68.496094 L 28.464844 69.933594 L 31.710938 71.90625 L 27.90625 77.539062 L 25.304688 76.066406 L 22.574219 75 L 19.71875 74.335938 L 16.738281 74.070312 L 13.84375 74.464844 L 11.476562 75.648438 L 10.25 76.921875 L 9.496094 78.550781 L 9.21875 80.539062 L 9.597656 82.394531 L 10.734375 84.066406 L 12.707031 85.429688 L 15.59375 86.292969 L 17.789062 86.625 L 20.667969 87.003906 L 24.527344 87.894531 L 27.652344 89.410156 L 30.039062 91.554688 L 31.707031 94.097656 L 32.707031 96.902344 L 33.042969 99.96875 L 32.507812 103.925781 L 31.128906 107.175781 L 28.910156 109.714844 L 25.851562 111.546875 L 21.945312 112.671875 L 17.199219 113.085938 L 13.304688 112.839844 L 9.632812 112.097656 L 6.1875 110.859375 L 2.964844 109.125 L -0.03125 106.898438 L 4.453125 101.761719 "/>
</g>
<g clip-path="url(#clip-1)">
<path fill-rule="evenodd" fill="rgb(0%, 0%, 0%)" fill-opacity="1" d="M 38.703125 90.160156 L 38.757812 85.5 L 38.910156 81.992188 L 39.167969 79.640625 L 39.792969 77.234375 L 40.683594 75.339844 L 41.996094 73.332031 L 43.75 71.476562 L 45.941406 69.773438 L 48.511719 68.390625 L 51.472656 67.546875 L 54.824219 67.234375 L 57.9375 67.5 L 60.746094 68.234375 L 63.257812 69.433594 L 65.464844 71.101562 L 67.875 73.863281 L 69.605469 77.027344 L 70.664062 80.601562 L 63.425781 80.601562 L 62.25 78.078125 L 60.390625 75.960938 L 58.757812 74.941406 L 56.898438 74.308594 L 54.824219 74.074219 L 52.582031 74.34375 L 50.675781 75.03125 L 49.082031 76.074219 L 47.832031 77.351562 L 46.722656 79.015625 L 46.066406 81.097656 L 45.792969 83.175781 L 45.625 86.195312 L 45.570312 90.160156 L 45.625 94.117188 L 45.792969 97.121094 L 46.066406 99.164062 L 46.722656 101.289062 L 47.832031 102.96875 L 49.082031 104.230469 L 50.675781 105.226562 L 52.582031 105.996094 L 54.824219 106.25 L 57.519531 105.867188 L 59.851562 104.710938 L 61.820312 102.785156 L 63.425781 100.09375 L 70.664062 100.09375 L 69.753906 103.050781 L 68.503906 105.644531 L 66.921875 107.878906 L 65 109.746094 L 61.960938 111.601562 L 58.566406 112.714844 L 54.824219 113.085938 L 51.472656 112.742188 L 48.511719 111.875 L 45.941406 110.488281 L 43.75 108.816406 L 41.996094 106.980469 L 40.683594 104.980469 L 40.214844 103.984375 L 39.785156 103.03125 L 39.445312 101.949219 L 39.167969 100.621094 L 38.910156 98.246094 L 38.757812 94.761719 L 38.703125 90.160156 "/>
</g>
<path fill-rule="evenodd" fill="rgb(0%, 0%, 0%)" fill-opacity="1" d="M 100.179688 112.714844 L 100.179688 93.007812 L 82.328125 93.007812 L 82.328125 112.714844 L 75.488281 112.714844 L 75.488281 67.605469 L 82.328125 67.605469 L 82.328125 86.941406 L 100.179688 86.941406 L 100.179688 67.605469 L 107.015625 67.605469 L 107.015625 112.714844 L 100.179688 112.714844 "/>
<path fill-rule="evenodd" fill="rgb(0%, 0%, 0%)" fill-opacity="1" d="M 116.546875 112.714844 L 116.546875 67.605469 L 134.152344 67.605469 L 137.675781 67.9375 L 140.738281 68.925781 L 143.339844 70.578125 L 145.234375 72.441406 L 146.613281 74.667969 L 147.476562 77.253906 L 147.828125 80.199219 L 147.234375 84.425781 L 145.582031 87.917969 L 142.871094 90.675781 L 139.101562 92.695312 L 149.558594 112.714844 L 141.421875 112.714844 L 132.109375 93.4375 L 123.382812 93.4375 L 123.382812 112.714844 L 116.546875 112.714844 M 123.382812 73.699219 L 123.382812 87.375 L 133.71875 87.375 L 136.0625 87.101562 L 137.980469 86.359375 L 139.472656 85.148438 L 140.886719 82.90625 L 141.359375 80.199219 L 141.082031 78.0625 L 140.328125 76.363281 L 139.101562 75.09375 L 136.984375 74.050781 L 134.089844 73.699219 L 123.382812 73.699219 "/>
<path fill-rule="evenodd" fill="rgb(49.01886%, 47.450256%, 30.587769%)" fill-opacity="1" d="M 155.191406 112.714844 L 155.191406 67.605469 L 162.027344 67.605469 L 162.027344 112.714844 L 155.191406 112.714844 "/>
<path fill-rule="evenodd" fill="rgb(49.01886%, 47.450256%, 30.587769%)" fill-opacity="1" d="M 171.527344 112.714844 L 171.527344 67.605469 L 178.363281 67.605469 L 178.363281 112.714844 L 171.527344 112.714844 "/>
<path fill-rule="evenodd" fill="rgb(0%, 0%, 0%)" fill-opacity="1" d="M 187.863281 67.605469 L 194.296875 67.605469 L 214.71875 99.660156 L 214.839844 99.660156 L 214.839844 67.605469 L 221.679688 67.605469 L 221.679688 112.714844 L 215.210938 112.714844 L 194.824219 80.664062 L 194.699219 80.664062 L 194.699219 112.714844 L 187.863281 112.714844 L 187.863281 67.605469 "/>
<path fill-rule="evenodd" fill="rgb(0%, 0%, 0%)" fill-opacity="1" d="M 231.207031 112.714844 L 231.207031 67.605469 L 260.011719 67.605469 L 260.011719 74.070312 L 238.042969 74.070312 L 238.042969 86.941406 L 256.792969 86.941406 L 256.792969 93.007812 L 238.042969 93.007812 L 238.042969 106.25 L 260.011719 106.25 L 260.011719 112.714844 L 231.207031 112.714844 "/>
<path fill-rule="evenodd" fill="rgb(0%, 0%, 0%)" fill-opacity="1" d="M 266.445312 112.714844 L 266.445312 67.605469 L 284.050781 67.605469 L 287.574219 67.9375 L 290.640625 68.925781 L 293.238281 70.578125 L 295.132812 72.441406 L 296.511719 74.667969 L 297.378906 77.253906 L 297.726562 80.199219 L 297.136719 84.425781 L 295.480469 87.917969 L 292.773438 90.675781 L 289.003906 92.695312 L 299.457031 112.714844 L 291.320312 112.714844 L 282.011719 93.4375 L 273.285156 93.4375 L 273.285156 112.714844 L 266.445312 112.714844 M 273.285156 73.699219 L 273.285156 87.375 L 283.617188 87.375 L 285.960938 87.101562 L 287.882812 86.359375 L 289.375 85.148438 L 290.789062 82.90625 L 291.257812 80.199219 L 290.980469 78.0625 L 290.230469 76.363281 L 289.003906 75.09375 L 286.882812 74.050781 L 283.988281 73.699219 L 273.285156 73.699219 "/>
<path fill-rule="evenodd" fill="rgb(0%, 0%, 0%)" fill-opacity="1" d="M 303.699219 98.390625 L 303.699219 91.925781 L 322.757812 91.925781 L 322.757812 98.390625 L 303.699219 98.390625 "/>
<path fill-rule="evenodd" fill="rgb(0%, 0%, 0%)" fill-opacity="1" d="M 338.503906 112.714844 L 338.503906 73.699219 L 326.160156 73.699219 L 326.160156 67.605469 L 357.71875 67.605469 L 357.71875 73.699219 L 345.371094 73.699219 L 345.371094 112.714844 L 338.503906 112.714844 "/>
<path fill-rule="evenodd" fill="rgb(0%, 0%, 0%)" fill-opacity="1" d="M 362.542969 112.714844 L 362.542969 67.605469 L 391.347656 67.605469 L 391.347656 74.070312 L 369.378906 74.070312 L 369.378906 86.941406 L 388.128906 86.941406 L 388.128906 93.007812 L 369.378906 93.007812 L 369.378906 106.25 L 391.347656 106.25 L 391.347656 112.714844 L 362.542969 112.714844 "/>
<path fill-rule="evenodd" fill="rgb(0%, 0%, 0%)" fill-opacity="1" d="M 424.390625 112.714844 L 420.894531 102.628906 L 403.785156 102.628906 L 400.320312 112.714844 L 393.078125 112.714844 L 409.480469 67.605469 L 415.203125 67.605469 L 431.597656 112.714844 L 424.390625 112.714844 M 405.765625 96.566406 L 418.945312 96.566406 L 412.417969 76.859375 L 412.292969 76.859375 L 405.765625 96.566406 "/>
<g clip-path="url(#clip-2)">
<path fill-rule="evenodd" fill="rgb(0%, 0%, 0%)" fill-opacity="1" d="M 436.425781 112.714844 L 436.425781 67.605469 L 442.863281 67.605469 L 455.792969 97 L 468.480469 67.605469 L 474.945312 67.605469 L 474.945312 112.714844 L 468.109375 112.714844 L 468.109375 84.59375 L 467.953125 84.59375 L 458.515625 106.25 L 452.824219 106.25 L 443.386719 84.59375 L 443.261719 84.59375 L 443.261719 112.714844 L 436.425781 112.714844 "/>
</g>
<path fill-rule="evenodd" fill="rgb(49.01886%, 47.450256%, 30.587769%)" fill-opacity="1" d="M -0.03125 45.050781 L -0.03125 -0.0585938 L 6.804688 -0.0585938 L 6.804688 45.050781 L -0.03125 45.050781 "/>
<path fill-rule="evenodd" fill="rgb(49.01886%, 47.450256%, 30.587769%)" fill-opacity="1" d="M 155.191406 45.050781 L 155.191406 -0.0585938 L 162.027344 -0.0585938 L 162.027344 45.050781 L 155.191406 45.050781 "/>
<path fill-rule="evenodd" fill="rgb(0%, 0%, 0%)" fill-opacity="1" d="M 16.855469 45.050781 L 16.855469 22.496094 L 21.984375 22.496094 L 21.984375 45.050781 L 16.855469 45.050781 "/>
<path fill-rule="evenodd" fill="rgb(0%, 0%, 0%)" fill-opacity="1" d="M 77.578125 45.050781 L 77.578125 11.21875 L 84.414062 11.21875 L 84.414062 45.050781 L 77.578125 45.050781 "/>
<path fill-rule="evenodd" fill="rgb(0%, 0%, 0%)" fill-opacity="1" d="M 32.035156 45.050781 L 32.035156 22.496094 L 37.167969 22.496094 L 37.167969 45.050781 L 32.035156 45.050781 "/>
<path fill-rule="evenodd" fill="rgb(0%, 0%, 0%)" fill-opacity="1" d="M 47.21875 45.050781 L 47.21875 22.496094 L 52.347656 22.496094 L 52.347656 45.050781 L 47.21875 45.050781 "/>
<path fill-rule="evenodd" fill="rgb(0%, 0%, 0%)" fill-opacity="1" d="M 62.398438 45.050781 L 62.398438 22.496094 L 67.53125 22.496094 L 67.53125 45.050781 L 62.398438 45.050781 "/>
<path fill-rule="evenodd" fill="rgb(0%, 0%, 0%)" fill-opacity="1" d="M 94.464844 45.050781 L 94.464844 22.496094 L 99.597656 22.496094 L 99.597656 45.050781 L 94.464844 45.050781 "/>
<path fill-rule="evenodd" fill="rgb(0%, 0%, 0%)" fill-opacity="1" d="M 109.648438 45.050781 L 109.648438 22.496094 L 114.777344 22.496094 L 114.777344 45.050781 L 109.648438 45.050781 "/>
<path fill-rule="evenodd" fill="rgb(0%, 0%, 0%)" fill-opacity="1" d="M 124.828125 45.050781 L 124.828125 22.496094 L 129.960938 22.496094 L 129.960938 45.050781 L 124.828125 45.050781 "/>
<path fill-rule="evenodd" fill="rgb(0%, 0%, 0%)" fill-opacity="1" d="M 140.007812 45.050781 L 140.007812 22.496094 L 145.140625 22.496094 L 145.140625 45.050781 L 140.007812 45.050781 "/>
</svg>
